<?xml version="1.0" encoding="utf-8"?>
<!-- Generator: Adobe Illustrator 16.0.3, SVG Export Plug-In . SVG Version: 6.00 Build 0)  -->
<!DOCTYPE svg PUBLIC "-//W3C//DTD SVG 1.1//EN" "http://www.w3.org/Graphics/SVG/1.1/DTD/svg11.dtd">
<svg version="1.1" xmlns="http://www.w3.org/2000/svg" xmlns:xlink="http://www.w3.org/1999/xlink" x="0px" y="0px" width="2048px"
	 height="2048px" viewBox="0 0 2048 2048" enable-background="new 0 0 2048 2048" xml:space="preserve">
<g id="Layer_3" display="none">
	<rect display="inline" fill="#18161A" width="2048" height="2048"/>
</g>
<g id="BG">
	<linearGradient id="SVGID_1_" gradientUnits="userSpaceOnUse" x1="511.9189" y1="137.0493" x2="1536.0814" y2="1910.951">
		<stop  offset="0" style="stop-color:#E817D8"/>
		<stop  offset="1" style="stop-color:#1770E8"/>
	</linearGradient>
	<path fill="url(#SVGID_1_)" d="M2048,1024c0,565.52-458.48,1024-1024,1024S0,1589.52,0,1024S458.48,0,1024,0S2048,458.48,2048,1024
		z"/>
</g>
<g id="Logo">
	<g>
		<path fill="#FFEEFF" d="M630.23,467.944v882.751h178.238V975.582h32.082c1.637-41.474,14.355-80.401,38.051-116.816
			c7.613-11.656,16.188-22.496,25.875-32.514h-96.008V617.277h426.895V467.944H630.23z M1039.066,918.064
			c-18.883,13.635-28.277,31.893-28.277,54.771c0,0.916,0,1.831,0.047,2.748h166.141v-89.07c-5.246-0.24-10.688-0.383-16.277-0.383
			C1108.914,886.129,1068.355,896.77,1039.066,918.064z"/>
	</g>
	<g>
		<path fill="#FFEEFF" d="M1490.965,1238.695c-23.453-37.906-55.969-67.828-97.547-89.691
			c-41.52-21.879-105.641-43.066-192.348-63.539c-86.711-20.473-141.34-40.133-163.789-59.014
			c-16.906-14.162-25.723-31.119-26.445-50.869H840.551c-0.148,3.083-0.191,6.168-0.191,9.294c0,69.85,27.117,129.1,81.309,177.659
			c38.543,34.543,105.547,63.637,201.121,87.285c74.23,18.496,121.828,31.32,142.684,38.539
			c30.492,10.844,51.879,23.609,64.113,38.25c12.293,14.645,18.406,32.422,18.406,53.277c0,32.516-14.543,60.945-43.691,85.219
			c-29.098,24.277-72.352,36.422-129.727,36.422c-54.195,0-97.262-13.641-129.191-40.953
			c-31.898-27.262-53.094-70.047-63.496-128.234l-173.418,16.867c11.609,98.754,47.352,173.902,107.18,225.484
			c59.785,51.602,145.484,77.368,257.094,77.368c76.695,0,140.711-10.739,192.109-32.173
			c51.348-21.496,91.094-54.289,119.227-98.469c28.082-44.176,42.152-91.527,42.152-142.102
			C1526.23,1323.531,1514.477,1276.66,1490.965,1238.695z M1176.977,886.512c42.156,1.974,74.336,11.802,96.641,29.432
			c25.098,19.896,41.426,52.503,49.086,97.836l178.234-7.802c-2.84-81.072-32.227-145.914-88.25-194.517
			c-55.977-48.559-139.363-72.837-250.156-72.837c-67.879,0-125.777,10.211-173.754,30.688
			c-33.629,14.357-61.762,33.333-84.301,56.94h272.5V886.512z"/>
	</g>
	<path fill="#FFEEFF" d="M1024,97.298c-511.785,0-926.703,414.917-926.703,926.703c0,511.784,414.918,926.699,926.703,926.699
		c511.781,0,926.7-414.915,926.7-926.699C1950.7,512.215,1535.781,97.298,1024,97.298z M1024,1860.2
		c-461.828,0-836.203-374.372-836.203-836.199c0-461.83,374.375-836.206,836.203-836.206c461.832,0,836.2,374.376,836.2,836.206
		C1860.2,1485.828,1485.832,1860.2,1024,1860.2z"/>
</g>
</svg>
