<?xml version="1.0" encoding="utf-8"?>
<!-- Generator: Adobe Illustrator 16.0.3, SVG Export Plug-In . SVG Version: 6.00 Build 0)  -->
<!DOCTYPE svg PUBLIC "-//W3C//DTD SVG 1.1//EN" "http://www.w3.org/Graphics/SVG/1.1/DTD/svg11.dtd">
<svg version="1.1"
	 id="svg2" xmlns:dc="http://purl.org/dc/elements/1.1/" xmlns:cc="http://creativecommons.org/ns#" xmlns:rdf="http://www.w3.org/1999/02/22-rdf-syntax-ns#" xmlns:svg="http://www.w3.org/2000/svg"
	 xmlns="http://www.w3.org/2000/svg" xmlns:xlink="http://www.w3.org/1999/xlink" x="0px" y="0px" width="800px" height="800px"
	 viewBox="0 0 800 800" enable-background="new 0 0 800 800" xml:space="preserve">
<path fill="#FFFFFF" d="M451.44,427.66c-31.511,36.76-101.45,100.6-101.45,100.6s-3.06,2.99-7.84,0.58
	c-1.92-1.42-2.74-2.27-2.74-2.27c-11.21-11.15-85.2-77.101-102.04-100.021c-17.93-24.42-26.32-68.29-2.29-93.85
	c24.04-25.56,76.01-27.47,110.35,10.3c0,0,39.6-45.07,87.73-24.36C481.29,339.35,479.46,394.77,451.44,427.66z"/>
<path fill="#FFFFFF" d="M643.89,319.16c8.771,10.19,15.78,24.52,15.78,44.32c0,48.4-24.93,67.46-52.08,76.26
	c-23.47,2.939-42.54,0.729-42.54,0.729V296.75h28.88C613.02,296.75,631.44,304.7,643.89,319.16z"/>
<path fill="#FFFFFF" d="M400,0C179.09,0,0,179.09,0,400c0,220.92,179.09,400,400,400c220.92,0,400-179.08,400-400
	C800,179.09,620.92,0,400,0z M563.08,513.75c0.59,28.35-5.08,79.22-59.84,92.92c-4.37,1.1-8.88,1.58-13.391,1.61
	c-96.169,0.6-296.709,1.189-296.709,1.189s-61.42,0.021-65.57-61.279c-1.37-103.841-0.65-298.26-0.65-298.26s-0.03-3.9-0.02-4.88
	c0.05-7.47,5.91-22.4,21.2-22.4h439.44c30.97,0,61.38,9.11,86.77,26.84c24.551,17.14,48.5,44.86,56.931,89.35
	C750.8,442.19,673.14,519.86,563.08,513.75z"/>
</svg>
