<?xml version="1.0" encoding="utf-8"?>
<!-- Generator: Adobe Illustrator 16.0.3, SVG Export Plug-In . SVG Version: 6.00 Build 0)  -->
<!DOCTYPE svg PUBLIC "-//W3C//DTD SVG 1.1//EN" "http://www.w3.org/Graphics/SVG/1.1/DTD/svg11.dtd">
<svg version="1.1" id="Layer_1" xmlns="http://www.w3.org/2000/svg" xmlns:xlink="http://www.w3.org/1999/xlink" x="0px" y="0px"
	 width="383.953px" height="383.953px" viewBox="0 0 383.953 383.953" enable-background="new 0 0 383.953 383.953"
	 xml:space="preserve">
<g>
	<path fill="#FFFFFF" d="M381.007,158.896c-10.69-57.38-41.221-101.26-90.771-131.77c-25.5-15.7-53.479-24.28-83.37-26.51
		c-0.979-0.08-1.93-0.41-2.89-0.62h-24c-6.9,0.96-13.84,1.7-20.7,2.9c-44.44,7.75-81.59,28.71-111.42,62.42
		c-27.13,30.66-42.51,66.62-46.95,107.28c-0.27,2.47-0.6,4.92-0.91,7.38v24c0.98,7.15,1.7,14.35,2.99,21.45
		c8.5,46.84,31.36,85.34,68.06,115.52c27.65,22.73,59.46,36.23,94.87,41.271c4.68,0.66,9.37,1.16,14.06,1.74h24
		c7.15-0.98,14.34-1.69,21.43-2.98c46.83-8.52,85.391-31.32,115.521-68.05c24.24-29.53,38-63.59,42.109-101.57
		c0.261-2.46,0.61-4.92,0.921-7.38v-24C382.986,172.947,382.307,165.867,381.007,158.896z M133.197,308.677h-40.91v-223.4h40.91
		V308.677z M241.467,252.767c-46.2,0-83.79-37.51-83.79-83.62c0-46.25,37.59-83.87,83.79-83.87c46.06,0,83.529,37.62,83.529,83.87
		C324.996,215.257,287.526,252.767,241.467,252.767z"/>
</g>
</svg>
