<?xml version="1.0" encoding="utf-8"?>
<!-- Generator: Adobe Illustrator 16.0.0, SVG Export Plug-In . SVG Version: 6.00 Build 0)  -->
<!DOCTYPE svg PUBLIC "-//W3C//DTD SVG 1.1//EN" "http://www.w3.org/Graphics/SVG/1.1/DTD/svg11.dtd">
<svg version="1.1"
	 id="svg2" xmlns:cc="http://creativecommons.org/ns#" xmlns:svg="http://www.w3.org/2000/svg" xmlns:dc="http://purl.org/dc/elements/1.1/" xmlns:rdf="http://www.w3.org/1999/02/22-rdf-syntax-ns#"
	 xmlns="http://www.w3.org/2000/svg" xmlns:xlink="http://www.w3.org/1999/xlink" x="0px" y="0px" width="800px" height="800px"
	 viewBox="0 0 800 800" enable-background="new 0 0 800 800" xml:space="preserve">
<path fill="#FFFFFF" d="M400,0C179.09,0,0,179.09,0,400c0,220.92,179.09,400,400,400c220.92,0,400-179.08,400-400
	C800,179.09,620.92,0,400,0z M641.18,392.98c-11.238,71.66-72.75,124.54-145.238,124.54h-46.03c-7.37,0-13.65,5.36-14.8,12.65
	L414.52,660.78c-1.158,7.278-7.43,12.64-14.799,12.64h-78.18c-0.64,0-1.28-0.05-1.91-0.15c-6.63-1.05-11.149-7.278-10.1-13.908
	l14.16-89.87l22.6-143.26c1.15-7.28,7.43-12.642,14.79-12.642h72.03c72.488,0,134.01-52.89,145.238-124.55
	c0.842-5.35,1.312-10.75,1.42-16.16C623.55,295.83,649.17,342.11,641.18,392.98z M570.58,263.69c-0.1,5.42-0.58,10.81-1.41,16.16
	c-11.24,71.66-72.75,124.54-145.25,124.54H351.9c-7.381,0-13.65,5.37-14.801,12.65L314.51,560.3h-90.97
	c-7.48,0-13.19-6.68-12.02-14.06l61.35-389.03c1.14-7.27,7.42-12.63,14.79-12.63h156.33c74.02,0,127.85,53.85,126.59,119.1V263.69
	L570.58,263.69z"/>
<g>
	<line fill="#FFFFFF" x1="570.58" y1="263.69" x2="570.58" y2="263.68"/>
	<line fill="#FFFFFF" x1="570.58" y1="263.69" x2="570.58" y2="263.68"/>
</g>
</svg>
