<?xml version="1.0" encoding="utf-8"?>
<!-- Generator: Adobe Illustrator 16.0.3, SVG Export Plug-In . SVG Version: 6.00 Build 0)  -->
<!DOCTYPE svg PUBLIC "-//W3C//DTD SVG 1.1//EN" "http://www.w3.org/Graphics/SVG/1.1/DTD/svg11.dtd">
<svg version="1.1" id="Layer_1" xmlns="http://www.w3.org/2000/svg" xmlns:xlink="http://www.w3.org/1999/xlink" x="0px" y="0px"
	 width="800px" height="800px" viewBox="0 0 800 800" enable-background="new 0 0 800 800" xml:space="preserve">
<path fill="#FFFFFF" d="M601.35,496c31.891-51.33,48.74-110.57,48.65-171C650,145.85,504.5,0,325,0C145.85,0,0,145.5,0,325
	c0,179.15,145.5,325,325,325c60.53,0.09,119.86-16.82,171.25-48.8L700,800l100-102.5L601.35,496z M324.85,547.6
	c-124.3,0-225-101-225-225c0-124.3,101-225,225-225c124.25,0,225,101,225,225C549.85,446.85,448.85,547.6,324.85,547.6z"/>
</svg>
