<?xml version="1.0" encoding="utf-8"?>
<!-- Generator: Adobe Illustrator 16.0.3, SVG Export Plug-In . SVG Version: 6.00 Build 0)  -->
<!DOCTYPE svg PUBLIC "-//W3C//DTD SVG 1.1//EN" "http://www.w3.org/Graphics/SVG/1.1/DTD/svg11.dtd">
<svg version="1.1" id="Layer_1" xmlns="http://www.w3.org/2000/svg" xmlns:xlink="http://www.w3.org/1999/xlink" x="0px" y="0px"
	 width="16px" height="16px" viewBox="0 0 16 16" enable-background="new 0 0 16 16" xml:space="preserve">
<path fill="#FFFFFF" d="M0.35,0.35c0.444-0.446,1.168-0.446,1.613-0.002c0,0,0,0,0.002,0.002L8,6.388l6.037-6.038
	c0.446-0.446,1.168-0.446,1.613,0c0.444,0.446,0.444,1.169,0,1.615L9.613,8l6.037,6.037c0.444,0.446,0.444,1.168,0,1.613
	c-0.445,0.444-1.167,0.444-1.613,0L8,9.613L1.965,15.65c-0.445,0.444-1.17,0.444-1.615,0c-0.446-0.445-0.446-1.167,0-1.613L6.388,8
	L0.35,1.965c-0.446-0.444-0.446-1.167-0.002-1.613C0.348,0.351,0.348,0.351,0.35,0.35z"/>
</svg>
